<svg width="140" height="140" fill="none" xmlns="http://www.w3.org/2000/svg"><g clip-path="url(#a)"><path fill="#fff" d="M0 0h140v140H0z"/><path transform="rotate(-90 0 140)" fill="url(#b)" d="M0 140h30v140H0z" style="mix-blend-mode:multiply" opacity=".3"/><path d="M73.92 37.706a5.098 5.098 0 0 1 5.093-4.9h22.402a5.097 5.097 0 0 1 5.094 4.9L110.475 140H69.953L73.92 37.706Z" fill="url(#c)" style="mix-blend-mode:multiply" opacity=".3"/><path d="M33.152 56.56a5.098 5.098 0 0 1 5.092-4.844h12.043a5.098 5.098 0 0 1 5.094 4.894L58.716 140H29l4.152-83.44Z" fill="url(#d)" style="mix-blend-mode:multiply" opacity=".3"/><path d="M50.657 26.751A5.098 5.098 0 0 1 55.743 22h25.322a5.098 5.098 0 0 1 5.097 5.098V140H42.94l7.718-113.249Z" fill="url(#e)" style="mix-blend-mode:multiply" opacity=".3"/></g><defs><linearGradient id="b" x1="29.683" y1="96.019" x2="-20.14" y2="101.708" gradientUnits="userSpaceOnUse"><stop stop-color="#1E2EED"/><stop offset="1" stop-color="#C21B1B"/></linearGradient><linearGradient id="c" x1="110.097" y1="35.157" x2="52.947" y2="48.267" gradientUnits="userSpaceOnUse"><stop stop-color="#1E2EED"/><stop offset="1" stop-color="#C21B1B"/></linearGradient><linearGradient id="d" x1="58.439" y1="53.65" x2="16.095" y2="62.311" gradientUnits="userSpaceOnUse"><stop stop-color="#1E2EED"/><stop offset="1" stop-color="#C21B1B"/></linearGradient><linearGradient id="e" x1="85.759" y1="24.554" x2="24.688" y2="38.308" gradientUnits="userSpaceOnUse"><stop stop-color="#1E2EED"/><stop offset="1" stop-color="#C21B1B"/></linearGradient><clipPath id="a"><path fill="#fff" d="M0 0h140v140H0z"/></clipPath></defs></svg>